<svg xmlns="http://www.w3.org/2000/svg" viewBox="0 0 268.392 45.858">
  <g fill="#fff">
    <path d="M102.562 14.327 75.544 24.585l1.57-3.386-36.613 12.515 2.022-4.195L.009 45.858l31.927-8.013-2.617 5.036 39.576-14.74-2.261 4.392Z" data-name="Path 4865"></path>
    <path d="m23.851 6.248-4.686 3.951-2.006-2.256c-.163.14-4 3.389-4 3.389l.545-5.4L-.005 17.487l9.361-4.5-2.397 20.198s2.863 2.118 3.1 2.28c.241-1.926 2.555-20.417 2.682-21.422v-.042l2.71-2.288.58.571-2.18 18.412s2.913 2.173 3.1 2.3l2.439-20.849 2.697-2.281.576.568-2.1 17.953 3.1 2.285L26.2 8.823Z" data-name="Path 4866"></path>
    <path d="m93.32 11.177-.934-.783.193-1.533 4.352-2.465-3.511-4.351-3.2 2.8-.755 6.042-4.262 2.351-1.021-.836.21-1.625 4.733-2.608-3.814-4.607-3.481 2.965-.732 5.735-1.549 1.5-2.433-4.806 5.455-4.973-2.478.356-4.106 3.5.981-7.831-2.967.41-1.656 13.415-1.8 1.972-.423-.355L71.2 6.943l-3.193.73-1 7.7-1.425 1.719-.6-.528 1.071-8.438-3.22.638-1 7.892-1.493 1.9-.649-.573 1.11-8.811-3.214.69-.07.686-2.245-1.085-3.153 4.024-.91 7.19 3.045 2.592 2.8-3.608 2.4 2.042 2.627-3.369 2.25 1.976 2.481-3.246 2.363 2.035 3.2-3.476 2.431 1.931.734-5.9 2.558 5.253 3.4-3.31 2.2 1.854 6.566-3.625 1.678 1.45 6.027-3.527.168-1.3Zm-.207-6.6 1.411 1.68-1.747.989Zm-8.137 1.664 1.529 1.781-1.9 1.045ZM56.534 18.23l-1.306 1.6-.7-.6 1.063-8.376 1.757.932Zm-7.683-6.619-1.3 10.065-.715.771-1.216-1.011 1.209-9.466-3.238.791-1.244 9.846-.957 1.273-1.022-.9 1.213-9.911-3.248.68-1.087 9.013-1.347 1.828-.949-.769 2.1-16.96-3.167.514-1.959 16.295-1.61 2.22-.8-.664 1.343-9.932-3.241.662-1.493 11.511 2.849 2.233 2.8-3.788 2.933 2.344 2.824-3.84 3.023 2.633 2.987-3.953 2.425 2.138 4.2-4.564 1.29-9.62Zm-17.388-1.327-3.236.547-.4 3.171 3.23-.61Z" data-name="Path 4867"></path>
    <path stroke="rgba(0,0,0,0)" d="M137.955 32.988h1.585c.155.748.871.871 1.794.871 1.74 0 1.993-.926 1.993-1.684v-.707h-.033a3.21 3.21 0 0 1-2.378.938c-1.539 0-3.247-.781-3.247-2.951a2.927 2.927 0 0 1 3.236-2.971 2.65 2.65 0 0 1 2.4.99h.022v-.857h1.519v5.656c0 1.387-.892 2.619-3.468 2.619-1.807 0-3.291-.396-3.423-1.904Zm1.3-3.553c0 .855.516 1.8 2.111 1.8a1.81 1.81 0 0 0 1.96-1.826 1.87 1.87 0 0 0-2.092-1.762 1.827 1.827 0 0 0-1.978 1.788Zm96.331.264v-5.086h2.619v4.656c0 1.275.594 1.682 1.795 1.682s1.792-.406 1.792-1.682v-4.656h2.618v5.086c0 2.168-1.628 3.014-4.41 3.014s-4.413-.846-4.413-3.014Zm-77.922.834v-3.895h1.519v3.324c0 .891.209 1.563 1.508 1.563a1.7 1.7 0 0 0 1.771-1.684v-3.2h1.518v5.834h-1.518v-.814h-.022a2.8 2.8 0 0 1-2.3 1.033c-1.253-.003-2.475-.454-2.475-2.161Zm-6.128 1.135h-.021v.8h-1.521v-7.986h1.521v2.994h.021a2.55 2.55 0 0 1 2.233-.99 3.103 3.103 0 1 1 0 6.207 2.58 2.58 0 0 1-2.232-1.025Zm-.088-2.09a1.965 1.965 0 1 0 1.958-1.928 1.8 1.8 0 0 0-1.957 1.932Zm-44.288-.023c0-1.607 1-3.137 3.61-3.137s3.61 1.529 3.61 3.137-1 3.137-3.61 3.137-3.609-1.53-3.609-3.138Zm1.586 0a2.026 2.026 0 1 0 2.024-1.971 1.835 1.835 0 0 0-2.023 1.97Zm57.219 1.287v-3.1h-1.211v-1.1h1.211v-1.8h1.52v1.8h1.582v1.1h-1.582v2.664c0 .672.032 1.035.549 1.035.376 0 .728-.012 1.089-.021v1.1a8 8 0 0 1-1.164.088c-1.85-.005-1.993-.665-1.993-1.767Zm-50.223 0v-3.1h-1.213v-1.1h1.213v-1.8h1.52v1.8h1.583v1.1h-1.583v2.664c0 .672.031 1.035.548 1.035.375 0 .729-.012 1.09-.021v1.1a8 8 0 0 1-1.166.088c-1.848-.005-1.991-.665-1.991-1.767Zm145.719 1.631v-1.564h1.718v1.564Zm-4.369 0v-2.479l-3.488-5.381h3.035l1.765 3.334 1.76-3.334h3.036l-3.489 5.381v2.479Zm-9.31 0v-6.1h-2.884v-1.762h8.387v1.762H250.4v6.1Zm-22.686 0v-7.859h5.681c2.431 0 3.74 1.309 3.74 3.93 0 3.094-1.826 3.93-4.084 3.93Zm2.619-1.764h2.188c1.5 0 1.906-1.1 1.906-2.176a1.882 1.882 0 0 0-2.114-2.158h-1.98Zm-13.1 1.764v-2.479l-3.488-5.381h3.037l1.761 3.334 1.763-3.334h3.038l-3.489 5.381v2.479Zm-10.146 0-3.5-7.859h2.873l2 5.6h.022l2-5.6h2.871l-3.5 7.859Zm-4.5 0-.474-1.277h-3.433l-.474 1.277h-2.806l3.411-7.859h3.2l3.378 7.859Zm-3.289-2.906h2.2l-1.091-2.973h-.02Zm-12.324 2.906v-7.859h7.871v1.7h-5.25v1.418h4.922v1.631h-4.922v1.42h5.25v1.7Zm-4.086 0v-3.291h-3.974v3.291h-2.621v-7.859h2.621v2.807h3.974v-2.807h2.618v7.859Zm-45.054 0v-3.48c0-.627-.211-1.342-1.465-1.342a1.675 1.675 0 0 0-1.814 1.684v3.139h-1.518V26.64h1.518v.879h.021a2.82 2.82 0 0 1 2.3-1.033c1.255 0 2.474.451 2.474 2.023v3.965Zm-7.595 0v-5.834h1.52v5.834Zm-2.8 0v-3.48c0-.627-.209-1.342-1.463-1.342a1.675 1.675 0 0 0-1.816 1.684v3.139h-1.518v-7.992h1.518v3.037h.022a2.82 2.82 0 0 1 2.3-1.033c1.256 0 2.477.451 2.477 2.023v3.965Zm-20.5 0-4.709-5.9h-.022v5.9h-1.586v-7.859h1.894l4.679 5.9h.02v-5.9h1.586v7.859ZM267.58 26.5v-1.576h-.009l-.618 1.576h-.2l-.619-1.576h-.01V26.5h-.31v-1.887h.479l.564 1.434.554-1.434h.478V26.5Zm-3.05 0v-1.637h-.591v-.25h1.493v.25h-.59V26.5Zm-136.909-.787v-1.231h1.52v1.232Z" data-name="Path 4889"></path>
    <path d="M95.191 1.985A1.33 1.33 0 1 1 96.528 3.3a1.313 1.313 0 0 1-1.337-1.315m1.337 1.094a1.09 1.09 0 1 0-1.068-1.094 1.053 1.053 0 0 0 1.068 1.094m-.276-.333h-.235v-1.51h.578c.359 0 .535.129.535.429a.39.39 0 0 1-.394.414l.429.668h-.254l-.4-.655h-.255Zm.27-.851c.193 0 .368-.013.368-.246 0-.187-.169-.221-.327-.221h-.307v.467Z" data-name="Path 4888"></path>
  </g>
</svg>
