<?xml version="1.0" standalone="no"?>
<!DOCTYPE svg PUBLIC "-//W3C//DTD SVG 20010904//EN"
 "http://www.w3.org/TR/2001/REC-SVG-20010904/DTD/svg10.dtd">
<svg version="1.0" xmlns="http://www.w3.org/2000/svg"
 width="704pt" height="191pt" viewBox="89 57 704 191"
 preserveAspectRatio="xMidYMid meet">

<g transform="translate(0.000000,297.000000) scale(0.100000,-0.100000)"
fill="#ffffff" stroke="none">
<path d="M1997 2400 c-230 -26 -402 -106 -640 -299 -97 -78 -131 -88 -177 -50
-14 11 -37 28 -51 39 l-26 19 9 -57 c12 -68 3 -232 -18 -357 -22 -129 -58
-230 -140 -392 -40 -79 -68 -143 -62 -143 13 0 43 16 118 65 176 115 302 157
584 199 92 14 170 27 173 29 2 3 -28 34 -68 70 l-72 66 6 51 c8 70 57 164 136
262 152 187 309 268 526 268 101 0 147 -10 196 -43 71 -47 109 -192 75 -281
-32 -84 -135 -152 -301 -197 -44 -12 -89 -25 -99 -28 -16 -6 5 -34 137 -182
86 -95 157 -179 157 -185 0 -21 -81 -86 -146 -116 -130 -61 -408 -92 -619 -69
-54 5 -100 9 -102 8 -1 -2 111 -126 249 -277 281 -308 264 -296 401 -286 220
18 468 169 550 335 31 65 32 69 32 201 -1 121 -3 143 -28 214 l-28 79 61 63
c107 111 155 254 131 393 -33 205 -127 330 -343 457 -206 121 -406 168 -621
144z m249 -50 c131 -17 328 -103 414 -180 25 -23 35 -36 23 -30 -59 28 -216
61 -318 67 -142 8 -249 -12 -362 -67 -104 -51 -174 -109 -263 -216 -81 -99
-114 -159 -134 -243 -18 -78 -11 -108 36 -157 43 -45 39 -54 -26 -54 -109 0
-435 -88 -551 -149 -27 -14 -53 -27 -57 -29 -4 -2 3 16 17 40 76 138 115 281
130 483 3 44 8 102 11 128 l6 49 32 -31 c18 -17 36 -31 41 -31 4 0 50 45 102
99 150 160 286 249 448 295 157 45 258 50 451 26z m506 -1100 c15 -30 30 -80
34 -110 l7 -55 -35 50 c-39 57 -117 115 -157 116 -21 1 -15 6 34 29 33 16 67
28 75 27 8 -1 27 -27 42 -57z"/>
<path d="M5753 1884 c-44 -22 -65 -57 -65 -110 0 -52 20 -87 65 -114 111 -68
235 65 167 178 -21 34 -72 62 -112 62 -13 0 -37 -8 -55 -16z"/>
<path d="M7334 1871 c-45 -27 -64 -59 -64 -106 0 -121 137 -178 217 -91 61 66
39 168 -43 202 -45 19 -73 18 -110 -5z"/>
<path d="M4896 1854 c-8 -22 3 -61 20 -68 12 -4 14 -66 14 -375 0 -364 0 -370
-21 -381 -15 -9 -19 -19 -17 -43 l3 -32 153 -3 152 -3 0 34 c0 20 -7 39 -19
49 -18 15 -19 28 -15 175 3 87 7 172 10 189 6 39 32 63 76 70 27 5 40 1 66
-21 l32 -27 0 -183 c0 -169 -1 -184 -21 -209 -12 -15 -19 -37 -17 -53 l3 -28
144 -3 c109 -2 146 1 153 10 14 23 9 58 -12 75 -19 16 -20 30 -20 216 0 215
-6 245 -58 300 -48 51 -99 71 -182 71 -59 1 -84 -4 -118 -21 -23 -13 -45 -23
-47 -23 -2 0 -6 66 -7 148 l-3 147 -131 3 c-113 2 -133 0 -138 -14z"/>
<path d="M4504 1625 c-80 -17 -117 -37 -170 -91 -62 -64 -87 -137 -82 -239 10
-228 193 -361 470 -342 48 3 88 12 104 22 23 15 25 20 22 93 -3 77 -3 77 -32
80 -20 3 -36 -4 -55 -22 -39 -38 -81 -49 -129 -37 -80 22 -130 90 -139 190 -7
78 11 138 57 183 31 31 45 38 77 38 47 0 71 -22 80 -73 6 -37 42 -64 68 -50
22 13 105 119 105 135 0 37 -109 100 -204 117 -73 13 -95 13 -172 -4z"/>
<path d="M3857 1620 c-53 -9 -120 -41 -154 -72 -25 -23 -53 -97 -53 -140 0
-89 71 -155 215 -199 120 -37 145 -51 145 -84 0 -30 -21 -42 -87 -51 -65 -8
-134 20 -158 65 -14 28 -20 31 -61 31 l-45 0 3 -92 3 -93 40 -14 c55 -19 315
-27 368 -11 99 29 166 102 175 190 6 65 -2 93 -39 134 -45 52 -91 77 -209 112
-101 31 -105 33 -105 61 0 24 5 29 36 37 53 13 107 -1 139 -35 23 -26 33 -30
71 -27 l44 3 3 72 c3 70 2 72 -25 86 -62 32 -204 44 -306 27z"/>
<path d="M6200 1621 c-101 -33 -190 -119 -217 -210 -10 -32 -17 -89 -17 -133
0 -66 5 -86 33 -142 35 -72 86 -117 185 -162 100 -46 280 -33 399 27 l38 20
-3 72 c-3 71 -3 72 -32 75 -22 3 -37 -5 -65 -31 -20 -19 -46 -40 -58 -46 -34
-18 -119 -13 -162 8 -44 23 -56 35 -75 83 l-15 36 202 70 c231 79 229 78 184
175 -50 109 -137 159 -282 164 -49 1 -101 -1 -115 -6z m152 -139 c9 -9 18 -30
20 -47 3 -27 -2 -32 -46 -53 -27 -13 -64 -26 -82 -29 l-34 -6 0 42 c0 100 82
153 142 93z"/>
<path d="M3125 1609 c-27 -4 -68 -14 -90 -22 l-40 -14 -3 -77 c-3 -72 -2 -77
21 -85 32 -12 76 -2 88 21 20 37 70 58 137 58 58 0 66 -3 94 -31 17 -17 27
-34 22 -39 -5 -4 -58 -20 -119 -35 -60 -15 -130 -38 -155 -50 -83 -43 -140
-123 -140 -197 1 -72 61 -154 129 -177 49 -16 171 -14 229 5 47 15 52 15 67 0
14 -14 36 -16 134 -14 112 3 116 4 119 26 2 12 -6 34 -17 48 -20 25 -21 40
-21 231 0 184 -2 208 -20 243 -23 45 -73 86 -127 106 -43 15 -227 17 -308 3z
m225 -373 c0 -59 -2 -66 -31 -90 -59 -50 -149 -25 -149 40 0 49 85 110 158
113 21 1 22 -3 22 -63z"/>
<path d="M5662 1588 c-19 -19 -14 -48 14 -81 l26 -31 -4 -207 c-3 -199 -4
-208 -25 -231 -25 -26 -30 -67 -11 -86 13 -13 72 -15 206 -6 l92 7 0 34 c0 21
-6 36 -15 39 -13 5 -15 46 -15 280 l0 274 -26 10 c-37 15 -227 13 -242 -2z"/>
<path d="M7006 1575 c-43 -23 -51 -24 -58 -11 -7 13 -29 16 -117 16 -92 0
-110 -3 -124 -18 -22 -24 -21 -29 7 -55 23 -22 24 -28 31 -243 l7 -220 -26
-29 c-14 -15 -26 -33 -26 -39 1 -33 16 -37 166 -34 148 3 149 3 152 26 2 15
-5 34 -20 49 -22 24 -23 30 -23 197 0 148 2 176 18 199 22 34 74 37 102 7 19
-20 60 -26 83 -12 9 6 12 33 10 98 l-3 89 -65 3 c-55 2 -74 -1 -114 -23z"/>
<path d="M7243 1579 c-20 -20 -15 -45 12 -75 25 -27 25 -27 25 -232 l0 -206
-27 -39 c-22 -31 -25 -43 -17 -65 12 -34 26 -36 181 -27 111 6 123 9 129 27 4
13 -2 31 -16 50 -22 30 -23 32 -16 282 6 215 5 254 -7 271 -14 18 -29 20 -134
23 -86 3 -121 0 -130 -9z"/>
<path d="M7900 1055 c0 -104 2 -125 15 -125 13 0 15 21 15 125 0 104 -2 125
-15 125 -13 0 -15 -21 -15 -125z"/>
<path d="M7672 1108 c-7 -7 -12 -25 -12 -40 0 -22 7 -31 38 -45 28 -14 37 -24
37 -43 0 -33 -44 -42 -52 -11 -3 12 -12 21 -19 21 -18 0 -18 -10 2 -38 21 -31
69 -30 90 3 22 34 10 62 -37 85 -40 21 -51 46 -24 57 9 3 24 -2 34 -11 31 -28
45 -12 15 18 -18 19 -55 21 -72 4z"/>
<path d="M7800 1025 c0 -57 4 -95 10 -95 6 0 10 30 10 69 0 64 2 71 27 89 31
22 24 44 -7 24 -12 -7 -20 -8 -20 -2 0 5 -4 10 -10 10 -6 0 -10 -38 -10 -95z"/>
<path d="M4200 785 c0 -16 6 -25 15 -25 9 0 15 9 15 25 0 16 -6 25 -15 25 -9
0 -15 -9 -15 -25z"/>
<path d="M5260 650 c0 -136 2 -160 15 -160 10 0 15 10 16 28 0 15 3 21 6 14 7
-19 58 -42 93 -42 70 0 120 51 120 123 0 104 -124 164 -196 96 l-24 -22 0 61
c0 48 -3 62 -15 62 -13 0 -15 -24 -15 -160z m189 34 c26 -22 31 -33 31 -70 0
-60 -32 -94 -88 -94 -73 0 -114 57 -92 126 21 63 96 83 149 38z"/>
<path d="M5560 785 c0 -16 6 -25 15 -25 9 0 15 9 15 25 0 16 -6 25 -15 25 -9
0 -15 -9 -15 -25z"/>
<path d="M5760 785 c0 -16 6 -25 15 -25 9 0 15 9 15 25 0 16 -6 25 -15 25 -9
0 -15 -9 -15 -25z"/>
<path d="M6320 756 l0 -54 -38 20 c-49 27 -100 19 -141 -23 -38 -38 -48 -84
-27 -132 29 -70 124 -100 180 -56 l26 20 0 -20 c0 -12 6 -21 15 -21 13 0 15
24 15 160 0 136 -2 160 -15 160 -11 0 -15 -13 -15 -54z m-31 -73 c66 -61 30
-163 -56 -163 -72 0 -115 58 -93 125 22 65 98 85 149 38z"/>
<path d="M6870 770 c0 -36 -2 -40 -25 -40 -16 0 -25 -6 -25 -15 0 -9 9 -15 25
-15 l25 0 0 -106 c0 -80 3 -105 13 -102 8 3 13 36 15 106 l3 102 29 0 c20 0
30 5 30 15 0 10 -10 15 -30 15 -28 0 -30 2 -30 40 0 29 -4 40 -15 40 -11 0
-15 -11 -15 -40z"/>
<path d="M6990 785 c0 -16 6 -25 15 -25 9 0 15 9 15 25 0 16 -6 25 -15 25 -9
0 -15 -9 -15 -25z"/>
<path d="M7370 650 c0 -136 2 -160 15 -160 13 0 15 24 15 160 0 136 -2 160
-15 160 -13 0 -15 -24 -15 -160z"/>
<path d="M7460 785 c0 -16 6 -25 15 -25 9 0 15 9 15 25 0 16 -6 25 -15 25 -9
0 -15 -9 -15 -25z"/>
<path d="M4112 724 c-12 -8 -22 -10 -22 -5 0 6 -7 11 -15 11 -12 0 -15 -20
-15 -120 0 -100 3 -120 15 -120 12 0 15 16 15 88 0 73 3 92 18 105 10 10 24
17 30 17 7 0 12 9 12 20 0 24 -8 25 -38 4z"/>
<path d="M4340 722 c-38 -20 -70 -72 -70 -113 0 -33 38 -90 70 -106 52 -27
136 -7 160 37 14 27 -3 27 -37 0 -55 -43 -144 -14 -158 51 -20 90 83 153 153
94 48 -40 74 -29 30 12 -52 47 -93 54 -148 25z"/>
<path d="M4623 725 c-66 -28 -91 -115 -51 -175 13 -19 35 -40 48 -47 38 -19
94 -16 124 8 l26 20 0 -20 c0 -12 6 -21 15 -21 13 0 15 20 15 120 0 100 -2
120 -15 120 -8 0 -15 -6 -15 -14 0 -11 -8 -10 -37 5 -44 22 -67 23 -110 4z
m118 -44 c38 -39 40 -96 4 -135 -48 -51 -145 -25 -160 45 -21 93 89 156 156
90z"/>
<path d="M4913 725 c-13 -9 -23 -11 -23 -6 0 6 -7 11 -15 11 -12 0 -15 -20
-15 -120 0 -100 3 -120 15 -120 12 0 15 17 15 90 0 99 15 130 63 130 45 0 62
-33 65 -131 3 -68 7 -89 18 -89 11 0 14 20 14 94 0 87 2 96 22 110 31 22 61
20 84 -5 15 -17 20 -40 22 -110 3 -71 7 -89 19 -89 12 0 14 16 11 95 -3 88 -5
97 -30 122 -34 34 -95 38 -127 9 -20 -18 -22 -18 -39 -3 -28 25 -73 31 -99 12z"/>
<path d="M5908 725 c-16 -9 -28 -11 -28 -5 0 5 -7 10 -15 10 -12 0 -15 -20
-15 -120 0 -100 3 -120 15 -120 12 0 15 16 15 85 0 78 2 88 25 110 29 30 64
32 96 6 21 -17 24 -29 27 -110 3 -73 7 -91 19 -91 12 0 14 16 11 95 -3 86 -5
97 -29 120 -31 32 -85 40 -121 20z"/>
<path d="M6685 715 c-43 -42 -31 -77 37 -109 37 -18 43 -25 43 -51 0 -27 -4
-30 -33 -33 -27 -3 -35 1 -39 17 -7 27 -33 28 -33 2 0 -44 75 -66 118 -35 19
13 22 24 20 57 -3 39 -6 44 -52 67 -54 28 -64 43 -46 65 18 22 51 19 57 -5 7
-26 33 -26 33 -1 0 22 -35 51 -63 51 -10 0 -29 -11 -42 -25z"/>
<path d="M7150 729 c-14 -6 -35 -20 -47 -31 -102 -96 22 -258 147 -193 27 14
30 14 30 0 0 -10 7 -15 17 -13 16 3 18 18 20 121 2 110 1 117 -18 117 -11 0
-19 -7 -19 -17 0 -15 -2 -15 -17 0 -24 20 -82 29 -113 16z m98 -44 c39 -32 48
-74 28 -114 -20 -37 -44 -51 -91 -51 -60 0 -94 48 -86 120 1 8 15 27 32 43 37
34 78 35 117 2z"/>
<path d="M4200 610 c0 -100 3 -120 15 -120 13 0 15 20 15 120 0 100 -2 120
-15 120 -12 0 -15 -20 -15 -120z"/>
<path d="M5560 610 c0 -100 3 -120 15 -120 13 0 15 20 15 120 0 100 -2 120
-15 120 -12 0 -15 -20 -15 -120z"/>
<path d="M5760 610 c0 -100 3 -120 15 -120 13 0 15 20 15 120 0 100 -2 120
-15 120 -12 0 -15 -20 -15 -120z"/>
<path d="M6410 639 c0 -87 1 -92 29 -120 37 -36 99 -41 131 -9 l20 20 0 -20
c0 -11 7 -20 15 -20 13 0 15 20 15 120 0 95 -3 120 -14 120 -10 0 -15 -22 -18
-85 -5 -101 -20 -125 -79 -125 -56 0 -69 25 -69 127 0 67 -3 83 -15 83 -12 0
-15 -17 -15 -91z"/>
<path d="M6990 610 c0 -100 3 -120 15 -120 13 0 15 20 15 120 0 100 -2 120
-15 120 -12 0 -15 -20 -15 -120z"/>
<path d="M7460 610 c0 -100 3 -120 15 -120 13 0 15 20 15 120 0 100 -2 120
-15 120 -12 0 -15 -20 -15 -120z"/>
<path d="M2930 620 l0 -30 450 0 450 0 0 30 0 30 -450 0 -450 0 0 -30z"/>
</g>
</svg>

